<!DOCTYPE svg PUBLIC "-//W3C//DTD SVG 1.1//EN" "http://www.w3.org/Graphics/SVG/1.1/DTD/svg11.dtd">
<!-- Uploaded to: SVG Repo, www.svgrepo.com, Transformed by: SVG Repo Mixer Tools -->
<svg fill="gold" version="1.1" id="Layer_1" xmlns="http://www.w3.org/2000/svg" xmlns:xlink="http://www.w3.org/1999/xlink" viewBox="0 0 512.003 512.003" xml:space="preserve" width="800px" height="800px" stroke="gold">
<g id="SVGRepo_bgCarrier" stroke-width="0"/>
<g id="SVGRepo_tracerCarrier" stroke-linecap="round" stroke-linejoin="round"/>
<g id="SVGRepo_iconCarrier"> <g> <g> <path d="M50.2,0v102.769h63.174V0H50.2z M97.713,87.107H65.862V15.662h31.851V87.107z"/> </g> </g> <g> <g> <polygon points="2.688,110.863 2.688,253.314 18.349,253.314 18.349,126.525 145.226,126.525 145.226,253.314 160.888,253.314 160.888,110.863 "/> </g> </g> <g> <g> <polygon points="33.499,171.618 33.499,187.28 40.808,187.28 40.808,253.059 56.47,253.059 56.47,171.618 "/> </g> </g> <g> <g> <polygon points="104.499,171.618 104.499,253.059 120.161,253.059 120.161,187.28 129.558,187.28 129.558,171.618 "/> </g> </g> <g> <g> <path d="M398.628,253.402v102.769h63.174V253.402H398.628z M446.14,340.509h-31.851v-71.446h31.851V340.509z"/> </g> </g> <g> <g> <polygon points="351.115,364.266 351.115,506.717 366.777,506.717 366.777,379.928 493.654,379.928 493.654,506.717 509.316,506.717 509.316,364.266 "/> </g> </g> <g> <g> <polygon points="383.278,424.294 383.278,439.956 389.543,439.956 389.543,506.779 405.205,506.779 405.205,424.294 "/> </g> </g> <g> <g> <polygon points="453.234,424.294 453.234,506.779 468.896,506.779 468.896,439.956 478.293,439.956 478.293,424.294 "/> </g> </g> <g> <g> <polygon points="232.561,30.226 221.487,41.302 232.775,52.589 129.558,52.589 129.558,68.251 230.975,68.251 221.487,77.739 232.561,88.815 261.855,59.52 "/> </g> </g> <g> <g> <polygon points="334.205,449.353 178.592,449.353 189.658,438.286 178.585,427.21 149.291,456.505 178.585,485.799 189.658,474.724 179.949,465.015 334.205,465.015 "/> </g> </g> <g> <g> <polygon points="449.478,188.168 438.616,199.031 438.616,130.898 422.955,130.898 422.955,198.083 413.04,188.168 401.966,199.243 431.26,228.537 460.553,199.243 "/> </g> </g> <g> <g> <path d="M287.765,0v110.688h221.551V0H287.765z M303.426,95.026V68.251h30.778V52.589h-30.778V15.662h56.592 c-10.364,10.064-16.823,24.128-16.823,39.682c0,15.553,6.458,29.618,16.823,39.683H303.426z M398.54,95.026 c-21.882,0-39.683-17.802-39.683-39.683s17.801-39.682,39.683-39.682c21.88,0,39.682,17.801,39.682,39.682 S420.421,95.026,398.54,95.026z M493.654,52.589h-32.067v15.662h32.067v26.775h-56.592c10.364-10.064,16.823-24.13,16.823-39.683 c0-15.553-6.459-29.617-16.823-39.682h56.592V52.589z"/> </g> </g> <g> <g> <path d="M81.305,345.214c-29.299,0-52.25,23.811-52.25,54.207c0,19.156,11.015,36.983,28.457,46.686v16.82h15.662v-26.735 l-4.642-2.068c-14.467-6.452-23.816-20.072-23.816-34.701c0-21.974,15.729-38.546,36.588-38.546 c20.771,0,37.041,16.931,37.041,38.546c0,16.164-4.081,28.196-23.997,34.374l-5.511,1.709v27.423h15.662v-16.127 c26.315-10.61,29.509-31.884,29.509-47.378C134.007,369.025,110.858,345.214,81.305,345.214z"/> </g> </g> <g> <g> <rect x="50.202" y="472.327" width="63.691" height="15.662"/> </g> </g> <g> <g> <rect x="57.511" y="496.341" width="48.029" height="15.662"/> </g> </g> <g> <g> <path d="M81.529,372.185v15.662c4.176,0,8.265,4.08,8.265,8.257h15.662C105.456,382.53,95.102,372.185,81.529,372.185z"/> </g> </g> <g> <g> <polygon points="81.787,270.172 52.494,299.466 63.568,310.541 73.176,300.933 73.176,336.589 88.838,336.589 88.838,299.372 100.006,310.541 111.08,299.466 "/> </g> </g> <g> <g> <path d="M398.54,23.757c-17.418,0-31.588,14.17-31.588,31.587c0,17.418,14.17,31.588,31.588,31.588 c17.417,0,31.587-14.17,31.587-31.588C430.127,37.926,415.957,23.757,398.54,23.757z M398.54,71.269 c-8.782,0-15.926-7.145-15.926-15.926s7.144-15.925,15.926-15.925c8.781,0,15.925,7.144,15.925,15.925 S407.321,71.269,398.54,71.269z"/> </g> </g> </g>
</svg>